<svg width="335" height="67" viewBox="0 0 335 67" fill="none" xmlns="http://www.w3.org/2000/svg">
<g clip-path="url(#clip0_1217_1676)">
<path d="M30.864 66.9995V62.7774C30.864 58.7937 32.8373 55.0789 36.1019 52.9069L40.3465 50.0794L25.6659 21.3751L10.9853 50.0794L15.2365 52.9069C18.5011 55.0789 20.4678 58.7871 20.4744 62.7642V66.9929L0.171875 53.4287L25.6725 0.78125L38.4235 27.1043L51.1732 53.4287L30.8707 66.9995H30.864Z" fill="#25F2D0"/>
</g>
<g clip-path="url(#clip1_1217_1676)">
<path d="M94.3432 24.0296C94.171 24.3342 93.9856 24.5527 93.7936 24.6851C93.5809 24.8286 93.3281 24.9005 93.0718 24.8904C92.787 24.8904 92.4427 24.7778 92.0917 24.5593C91.6765 24.3014 91.2548 24.0541 90.827 23.8177C90.337 23.5448 89.7675 23.2932 89.1119 23.076C88.4564 22.8562 87.6816 22.737 86.7943 22.737C85.9864 22.737 85.2845 22.8363 84.6819 23.0283C84.0793 23.2204 83.5695 23.4919 83.1589 23.8362C82.7483 24.1805 82.4437 24.599 82.2385 25.0758C82.0398 25.5605 81.9339 26.0903 81.9339 26.6664C81.9339 27.4027 82.1391 28.0119 82.5497 28.5019C82.9602 28.992 83.5032 29.4105 84.1787 29.7548C84.8541 30.0991 85.6222 30.4117 86.4897 30.6818C87.3505 30.9547 88.2378 31.246 89.145 31.5572C90.0522 31.8698 90.9395 32.2274 91.8004 32.6379C92.6458 33.0359 93.4252 33.5611 94.1114 34.1954C94.7868 34.8245 95.3298 35.586 95.7404 36.4945C96.1509 37.403 96.3562 38.5035 96.3562 39.8014C96.3562 41.2132 96.1178 42.5323 95.6344 43.7652C95.1663 44.9763 94.4463 46.0742 93.5221 46.9861C92.595 47.8999 91.4627 48.623 90.1251 49.1461C88.7875 49.6693 87.2512 49.9355 85.5295 49.9355C84.5362 49.9355 83.5562 49.8348 82.596 49.6441C81.6463 49.4562 80.7171 49.1763 79.8215 48.8084C78.9342 48.4508 78.1064 48.0191 77.3251 47.5092C76.5745 47.0259 75.8794 46.4614 75.2524 45.826L76.9609 43.0421C77.1066 42.8435 77.292 42.6713 77.5237 42.5323C77.7555 42.3932 78.0005 42.327 78.2588 42.327C78.6163 42.327 79.007 42.4727 79.4242 42.7706C79.8414 43.0686 80.338 43.3931 80.9141 43.7507C81.4902 44.1083 82.1656 44.4407 82.9338 44.732C83.7019 45.03 84.6289 45.177 85.7083 45.177C87.3638 45.177 88.6418 44.785 89.549 43.997C90.4562 43.2156 90.9064 42.0886 90.9064 40.6172C90.9064 39.7961 90.7012 39.126 90.2906 38.6095C89.8801 38.093 89.3371 37.6546 88.6616 37.3037C87.9238 36.927 87.1494 36.6266 86.3506 36.4071C85.4671 36.1567 84.5885 35.8896 83.7151 35.6058C82.8165 35.3152 81.9364 34.9702 81.0796 34.5728C80.2279 34.177 79.4471 33.6437 78.7686 32.9942C78.0932 32.3452 77.5502 31.5374 77.1397 30.5626C76.7291 29.5879 76.5238 28.388 76.5238 26.963C76.5238 25.8241 76.749 24.7169 77.2059 23.6362C77.6625 22.5542 78.3338 21.5761 79.1792 20.761C80.04 19.9267 81.1061 19.2565 82.3775 18.752C83.6423 18.2487 85.0991 17.9971 86.7347 17.9971C88.5756 17.9971 90.2774 18.2818 91.8269 18.8579C93.383 19.4353 94.7074 20.2432 95.8 21.2775L94.3564 24.0216L94.3432 24.0282V24.0296ZM120.183 18.3427C122.269 18.3427 124.076 18.5877 125.6 19.0778C127.123 19.5678 128.387 20.2511 129.374 21.1332C130.352 21.9926 131.111 23.0739 131.586 24.2865C132.069 25.5128 132.307 26.8518 132.307 28.3033C132.307 29.7548 132.056 31.1997 131.553 32.4644C131.061 33.7107 130.286 34.8249 129.288 35.7184C128.281 36.6269 127.017 37.3288 125.5 37.8334C123.984 38.3367 122.209 38.5883 120.183 38.5883H115.844V49.5832H110.037V18.3414H120.182L120.183 18.3427ZM120.183 34.0497C121.249 34.0497 122.176 33.9173 122.964 33.6524C123.759 33.3862 124.414 33.0021 124.937 32.5042C125.46 32.0075 125.851 31.4049 126.116 30.6898C126.374 29.9733 126.507 29.1774 126.507 28.3033C126.507 27.4292 126.374 26.7127 126.116 26.0373C125.868 25.3773 125.469 24.7845 124.951 24.3063C124.434 23.8296 123.779 23.4654 122.984 23.2137C122.189 22.9621 121.256 22.8363 120.176 22.8363H115.839V34.0484H120.183V34.0497ZM151.218 22.9687V31.6301H162.139V36.1038H151.218V44.9373H165.078V49.5832H145.391V18.3414H165.078V22.9687H151.218ZM205.592 49.5845H201.103C200.6 49.5845 200.189 49.4587 199.871 49.2071C199.556 48.9612 199.312 48.6363 199.163 48.2654L196.832 41.8899H183.899L181.569 48.2654C181.456 48.5965 181.231 48.9011 180.9 49.1726C180.569 49.4454 180.158 49.5832 179.668 49.5832H175.139L187.422 18.3507H193.336L205.592 49.5845ZM195.342 37.7871L191.541 27.3961C191.356 26.9326 191.157 26.3896 190.958 25.7539C190.76 25.1169 190.554 24.4335 190.356 23.6985C190.17 24.4335 189.978 25.1235 189.773 25.7592C189.574 26.4028 189.376 26.9591 189.19 27.4358L185.416 37.7804H195.342V37.7871ZM241.824 49.5832H236.58C235.587 49.5832 234.865 49.1925 234.421 48.4177L227.859 38.4161C227.614 38.0387 227.343 37.7738 227.051 37.6136C226.76 37.4546 226.323 37.3752 225.747 37.3752H223.264V49.5832H217.456V18.3414H226.978C229.091 18.3414 230.912 18.5613 232.428 18.9983C233.945 19.4353 235.189 20.0525 236.163 20.8471C237.136 21.6417 237.851 22.5833 238.308 23.6905C238.765 24.7897 238.997 26.0029 238.997 27.3285C239.005 28.3412 238.848 29.3484 238.533 30.311C238.231 31.2296 237.779 32.0919 237.196 32.8631C236.59 33.6453 235.861 34.3235 235.037 34.8708C234.135 35.4677 233.148 35.9257 232.11 36.2296C232.883 36.6695 233.536 37.2932 234.011 38.0453L241.824 49.5832ZM226.886 33.2074C227.978 33.2074 228.932 33.0683 229.746 32.7969C230.561 32.524 231.23 32.1479 231.753 31.6632C232.276 31.1798 232.673 30.609 232.931 29.9468C233.19 29.2846 233.322 28.5549 233.322 27.7669C233.322 26.183 232.799 24.9632 231.759 24.1143C230.713 23.2667 229.124 22.8429 226.978 22.8429H223.264V33.2127H226.892L226.886 33.2074ZM264.596 18.3427C266.642 18.3427 268.39 18.5348 269.84 18.9255C271.29 19.3161 272.482 19.8658 273.409 20.5889C274.336 21.312 275.018 22.1794 275.449 23.2005C275.879 24.2203 276.098 25.3738 276.098 26.6597C276.098 27.3948 275.992 28.098 275.773 28.7668C275.555 29.4369 275.224 30.0647 274.767 30.6487C274.31 31.2315 273.74 31.7625 273.038 32.2393C272.264 32.7532 271.425 33.1611 270.542 33.4524C274.826 34.4192 276.972 36.7329 276.972 40.4106C276.972 41.7363 276.72 42.9627 276.217 44.0831C275.714 45.2045 274.962 46.1968 274.018 46.9848C273.052 47.8006 271.866 48.4363 270.456 48.8932C269.045 49.3567 267.436 49.5819 265.622 49.5819H253.835V18.3427H264.596ZM259.649 22.8363V31.8685H264.271C266.258 31.8685 267.754 31.5109 268.774 30.7878C269.787 30.066 270.297 28.9257 270.297 27.355C270.297 25.7843 269.833 24.5725 268.913 23.8759C267.993 23.1873 266.556 22.8429 264.596 22.8429H259.649V22.8363ZM265.523 45.0433C266.602 45.0433 267.509 44.9108 268.244 44.6526C268.979 44.3943 269.562 44.0487 270.006 43.6196C270.44 43.1987 270.767 42.6802 270.959 42.1071C271.151 41.531 271.251 40.9205 271.251 40.2716C271.251 39.6226 271.145 38.9869 270.926 38.4492C270.709 37.9102 270.361 37.434 269.913 37.064C269.449 36.6799 268.86 36.3885 268.132 36.1899C267.403 35.9912 266.529 35.8853 265.509 35.8853H259.662V45.0433H265.536H265.523ZM296.745 49.5832H290.917V18.3414H296.745V49.5832ZM334.147 23.1224H324.738V49.5832H318.93V23.1237H309.521V18.352H334.147V23.1237V23.1224Z" fill="black"/>
</g>
<defs>
<clipPath id="clip0_1217_1676">
<rect width="51.6502" height="66.2183" fill="currentColor" transform="translate(0.171875 0.78125)"/>
</clipPath>
<clipPath id="clip1_1217_1676">
<rect width="259.576" height="66.2183" fill="currentColor" transform="translate(75.2524 0.78125)"/>
</clipPath>
</defs>
</svg>
