<svg width="199" height="120" viewBox="0 0 199 120" fill="none" xmlns="http://www.w3.org/2000/svg">
<g clip-path="url(#clip0_1217_1248)">
<path d="M87.8996 86.6502C88.9868 87.1209 89.9843 87.5468 90.8417 88.2473C92.9432 89.9678 94.1201 92.1533 94.2322 94.8825C94.3498 97.7518 93.9295 100.543 92.8984 103.216C90.8978 108.416 87.3056 112.042 82.077 114.037C80.1212 114.783 78.0869 115.119 76.019 115.349C75.5538 115.399 75.1448 115.27 74.7413 115.052C71.928 113.505 69.1092 111.964 66.2847 110.423C63.2866 108.786 60.2884 107.155 57.2846 105.53C56.9764 105.362 56.8924 105.188 57.0044 104.835C57.6657 102.801 58.299 100.756 58.949 98.7157C60.7423 93.106 62.5356 87.502 64.3289 81.8979C65.3096 78.8381 66.2847 75.7839 67.2598 72.7241C68.5488 68.6892 69.8489 64.6543 71.1154 60.6137C71.2836 60.0757 71.5245 59.8852 72.0961 59.8908C77.5153 59.9132 82.94 59.8123 88.3535 59.9356C91.5198 60.0085 94.5964 60.6417 97.2135 62.6704C99.2366 64.2395 100.318 66.3299 100.649 68.8069C101.108 72.2477 100.649 75.5709 99.0348 78.6812C97.7739 81.0965 95.9022 82.9347 93.5821 84.3525C91.8392 85.4173 89.9339 86.0786 87.8884 86.6558L87.8996 86.6502ZM71.2836 106.797C72.3707 106.786 73.7101 106.836 75.0439 106.662C76.5626 106.466 77.958 106.007 79.062 104.886C81.0738 102.84 82.2171 100.324 82.996 97.6117C83.2987 96.5637 83.3771 95.4878 83.1866 94.4286C82.8447 92.5064 81.4661 91.5985 79.6953 91.167C77.6778 90.6739 75.6211 90.7579 73.57 90.7411C73.0432 90.7411 72.8415 90.9317 72.6902 91.4136C71.8216 94.1764 70.9193 96.9336 70.0283 99.6852C69.3277 101.848 68.6216 104.006 67.8987 106.163C67.7418 106.634 67.8259 106.814 68.347 106.797C69.2437 106.769 70.1347 106.791 71.2836 106.791V106.797ZM78.496 82.6096C79.3702 82.5536 80.4182 82.6545 81.4661 82.4976C84.907 81.982 87.5577 80.3848 88.9027 77.0616C89.5808 75.3972 89.8554 73.6207 89.5304 71.833C89.2221 70.135 87.978 69.3 86.4089 68.8965C84.3634 68.3753 82.2731 68.6499 80.2052 68.5939C79.869 68.5827 79.8129 68.8573 79.7401 69.0814C79.2021 70.7571 78.6809 72.4383 78.1429 74.1139C77.2911 76.7646 76.4337 79.4153 75.5707 82.0604C75.4418 82.4527 75.5034 82.6321 75.9742 82.6152C76.7587 82.5872 77.5377 82.6096 78.4904 82.6096H78.496Z" fill="#9E223B"/>
<path d="M58.4793 29.8747C59.9475 30.2894 61.399 30.7041 62.6543 31.6176C64.2794 32.8 65.1032 34.3916 65.1985 36.3978C65.333 39.2783 64.6269 42.0187 63.7975 44.731C62.9345 47.5443 61.9145 50.3127 61.5054 53.2436C61.3878 54.101 61.2421 54.964 61.2981 55.8383C61.3317 56.337 61.1244 56.4995 60.6368 56.4995C56.9606 56.4883 53.2899 56.4827 49.6136 56.4995C49.0364 56.4995 48.9468 56.2474 48.9972 55.7542C49.4399 51.3326 50.8746 47.1464 52.0682 42.9041C52.595 41.038 53.1386 39.1886 53.161 37.2104C53.1778 35.4171 52.1859 34.7222 50.897 34.3243C49.9499 34.0329 48.9636 34.0273 47.9773 34.0441C46.834 34.0609 45.6908 34.0609 44.5476 34.0441C44.1217 34.0385 43.9087 34.1898 43.7798 34.6045C43.1858 36.5435 42.5357 38.4657 41.9585 40.4103C41.7848 40.9875 41.5438 41.094 40.9946 40.9427C37.918 40.1021 34.8357 39.2895 31.7535 38.4769C30.7616 38.2135 30.7616 38.2023 31.0698 37.216C32.9808 31.0403 34.8806 24.8591 36.7972 18.6834C37.8563 15.2761 38.9379 11.8745 40.0195 8.47842C40.748 6.18075 41.5102 3.8999 42.2107 1.59103C42.3452 1.15392 42.5469 1.02502 42.956 1.02502C48.0389 1.03063 53.1274 0.946567 58.2103 1.05865C61.1132 1.1259 63.9824 1.66949 66.6051 3.03688C69.9339 4.76293 71.8897 7.46969 72.3157 11.2356C72.764 15.1809 72.1812 18.9468 70.231 22.4269C68.1743 26.0976 65.0192 28.3952 60.9562 29.4544C60.5471 29.5609 60.1324 29.6786 59.7177 29.729C59.303 29.7738 58.9052 29.97 58.4736 29.8691L58.4793 29.8747ZM50.1516 25.2233C51.0483 25.2233 51.9449 25.2513 52.836 25.2177C54.3379 25.1617 55.638 24.6125 56.7588 23.5869C58.9052 21.6199 60.0204 19.1037 60.6368 16.3353C60.889 15.2089 61.0683 14.0657 60.8049 12.8944C60.4855 11.499 59.2862 10.4454 57.4537 10.1372C55.5651 9.82339 53.6598 10.0644 51.7656 9.99151C51.3789 9.9747 51.3565 10.2605 51.278 10.5127C50.684 12.4237 50.0788 14.3403 49.4903 16.2568C48.6329 19.0477 47.7923 21.8385 46.9181 24.6237C46.75 25.1505 46.9293 25.2457 47.4 25.2345C48.3191 25.2121 49.2326 25.2289 50.1516 25.2289V25.2233Z" fill="#9E223B"/>
<path d="M90.2486 44.7979C88.0293 44.7979 85.8157 44.8092 83.5965 44.7867C83.1538 44.7867 82.9185 44.938 82.7167 45.3303C80.8281 48.9281 78.9116 52.5091 77.0118 56.1013C76.8212 56.46 76.5971 56.6281 76.1768 56.6281C72.4333 56.6169 68.6954 56.6113 64.9519 56.6281C64.3074 56.6281 64.3522 56.3759 64.5932 55.9556C65.6468 54.0895 66.7003 52.2233 67.7483 50.3572C69.0876 47.9866 70.4214 45.6161 71.7552 43.2456C73.442 40.2531 75.1344 37.2661 76.8268 34.2735C78.1214 31.9815 79.4047 29.6838 80.6992 27.3918C82.4197 24.3431 84.1457 21.2945 85.8662 18.2403C87.1887 15.8866 88.5169 13.5385 89.817 11.168C90.4167 10.0752 90.3831 10.0752 91.5487 10.4283C93.7007 11.084 95.8638 11.7172 98.0214 12.3617C98.6827 12.5578 98.7443 12.7035 98.4697 13.3088C96.0151 18.7447 93.4485 24.1246 90.7305 29.4316C89.733 31.3818 88.713 33.3152 87.6819 35.2486C87.4409 35.697 87.4633 35.8539 88.0294 35.8483C91.2797 35.8315 94.5244 35.8315 97.7748 35.8483C98.2624 35.8483 98.4585 35.7026 98.4417 35.1982C98.4137 34.1446 98.4473 33.0911 98.4305 32.0431C98.3856 29.4933 98.5874 26.9546 98.7331 24.416C98.9012 21.3954 99.2431 18.3804 99.5233 15.3655C99.5793 14.7434 99.725 14.1326 99.7698 13.5161C99.8035 13.0117 100.016 13.0005 100.426 13.1238C102.684 13.8131 104.954 14.48 107.218 15.1637C108.008 15.4047 108.781 15.6905 109.583 15.8922C110.003 15.9987 110.098 16.2173 110.093 16.5983C110.093 18.1843 109.98 19.7702 109.98 21.3562C109.975 24.6458 109.835 27.9297 109.779 31.2193C109.745 33.1191 109.824 35.0245 109.667 36.913C109.498 38.9025 109.689 40.8975 109.532 42.8758C109.375 44.7979 109.56 46.7257 109.398 48.6367C109.235 50.5589 109.347 52.4811 109.28 54.4033C109.258 55.0029 109.106 55.597 109.14 56.2022C109.151 56.4264 109.061 56.5889 108.804 56.6113C108.316 56.6561 107.828 56.7514 107.341 56.7514C104.247 56.7626 101.16 56.7402 98.0662 56.7682C97.4273 56.7738 97.192 56.5889 97.2256 55.9332C97.3657 53.3049 97.461 50.671 97.5394 48.0371C97.5675 47.1965 97.5899 46.3447 97.6459 45.4985C97.6851 44.9212 97.4442 44.7811 96.9062 44.7867C94.687 44.8092 92.4734 44.7979 90.2542 44.7979H90.2486Z" fill="#9E223B"/>
<path d="M102.839 91.2949C102.043 91.2949 101.999 91.2388 102.234 90.5103C103.674 86.0999 105.12 81.6895 106.555 77.2791C108.471 71.4061 110.438 65.5498 112.276 59.6544C114.109 53.7813 115.801 47.869 117.567 41.9792C118.94 37.3895 120.329 32.7997 121.702 28.21C122.392 25.9067 123.07 23.5923 123.748 21.2834C124.028 20.3363 124.028 20.3083 124.975 20.5885C127.945 21.4739 130.904 22.3818 133.874 23.284C134.323 23.4185 134.771 23.5586 135.219 23.6875C135.572 23.7884 135.673 23.9958 135.567 24.3432C135.231 25.408 134.917 26.4728 134.575 27.5375C133.23 31.7686 131.874 35.994 130.534 40.2195C128.808 45.661 127.094 51.1026 125.367 56.5441C124.14 60.4109 122.896 64.2721 121.669 68.1445C119.853 73.8606 118.043 79.5768 116.233 85.2985C115.796 86.6771 115.314 88.0501 114.95 89.4511C114.753 90.2021 114.316 90.4486 113.638 90.4879C111.57 90.6224 109.502 90.7513 107.435 90.9026C105.905 91.0147 104.375 91.166 102.845 91.3005L102.839 91.2949Z" fill="#9E223B"/>
<path d="M21.4024 1.17111C27.2698 1.17111 33.1429 1.17111 39.0103 1.17111C39.9966 1.17111 39.9854 1.17111 39.6828 2.14061C38.8646 4.71287 38.0464 7.27953 37.2562 9.863C37.0993 10.3842 36.8471 10.5467 36.3091 10.5467C32.9243 10.5243 29.5451 10.5635 26.1602 10.5131C25.4373 10.5019 25.2019 10.8101 25.017 11.4097C23.4534 16.5038 21.8731 21.5923 20.2984 26.6808C19.525 29.1746 18.7516 31.6628 17.9951 34.1566C17.8662 34.5881 17.6813 34.7114 17.2386 34.5881C13.9041 33.6802 10.5697 32.7892 7.22411 31.9093C6.77578 31.7917 6.78699 31.5731 6.89907 31.22C7.6276 28.9 8.35052 26.5799 9.07905 24.2598C10.4408 19.9223 11.8026 15.5791 13.1644 11.2416C13.383 10.5355 13.3718 10.5299 12.5872 10.5299C8.64193 10.5299 4.70228 10.5299 0.757028 10.5299C-0.117204 10.5299 -0.1116 10.5299 0.157394 9.68367C0.969982 7.13382 1.80499 4.58958 2.56153 2.02293C2.76888 1.31121 3.11633 1.1543 3.80003 1.1543C9.66747 1.17671 15.5405 1.1655 21.408 1.1655L21.4024 1.17111Z" fill="#9E223B"/>
<path d="M171.147 89.5466C172.436 89.2832 173.714 89.3056 174.969 89.2103C177.57 89.0198 180.176 88.8909 182.77 88.6723C183.46 88.6163 184.149 88.6387 184.838 88.5266C185.096 88.4874 185.371 88.5042 185.595 88.7116C187.584 90.5609 189.12 92.6848 189.506 95.4589C189.854 97.9471 189.674 100.39 188.884 102.789C187.724 106.314 186.2 109.654 183.779 112.495C182.171 114.384 180.114 115.684 177.788 116.536C175.849 117.247 173.837 117.584 171.786 117.785C169.775 117.982 167.757 117.959 165.751 117.869C162.814 117.735 159.939 117.175 157.373 115.617C154.845 114.081 153.327 111.834 152.873 108.892C152.357 105.541 153.158 102.38 154.285 99.2696C154.397 98.967 154.565 98.8605 154.879 98.8605C158.639 98.8661 162.405 98.8661 166.165 98.8605C166.58 98.8605 166.692 99.0174 166.502 99.3873C165.768 100.833 165.319 102.369 165.101 103.971C164.826 106.022 165.656 108.46 167.976 108.981C169.354 109.29 170.699 109.021 171.943 108.399C175.138 106.807 177.312 104.369 177.962 100.772C178.158 99.6787 177.872 98.5915 177.57 97.5436C176.701 94.5342 174.773 92.3038 172.291 90.4993C171.932 90.2359 171.568 89.9781 171.209 89.7147C171.181 89.6923 171.176 89.6362 171.136 89.5354L171.147 89.5466Z" fill="#9E223B"/>
<path d="M148.389 60.0305C154.279 60.0305 160.174 60.0305 166.064 60.0305C166.978 60.0305 166.972 60.0305 166.697 60.9047C165.89 63.4546 165.061 65.9988 164.293 68.5655C164.091 69.2323 163.766 69.4117 163.105 69.4061C159.788 69.378 156.476 69.4061 153.158 69.3781C152.502 69.3724 152.216 69.5854 152.026 70.2018C150.165 76.159 148.266 82.1105 146.411 88.0676C146.215 88.6952 145.917 88.8689 145.279 88.9026C143.031 89.0259 140.795 89.2612 138.548 89.3957C137.259 89.4742 135.965 89.519 134.681 89.6647C134.216 89.7152 134.155 89.4462 134.267 89.0707C134.564 88.09 134.849 87.1037 135.152 86.123C136.828 80.7375 138.503 75.352 140.196 69.9721C140.364 69.4341 140.162 69.3837 139.708 69.3837C135.746 69.3949 131.778 69.3893 127.811 69.3893C126.858 69.3893 126.864 69.3893 127.161 68.4534C127.979 65.8811 128.803 63.3145 129.593 60.731C129.761 60.1874 130.013 60.0137 130.579 60.0137C136.514 60.0305 142.454 60.0249 148.389 60.0249V60.0305Z" fill="#9E223B"/>
<path d="M191.446 77.5873C189.854 77.5873 188.268 77.5873 186.677 77.5873C185.629 77.5873 185.606 77.5761 185.971 76.5673C186.402 75.3737 186.906 74.1968 187.086 72.9303C187.232 71.9328 187.254 70.9241 186.839 69.9658C186.24 68.5816 184.967 68.3406 183.69 68.1949C182.171 68.0268 180.759 68.3294 179.571 69.3773C178.825 70.0386 178.248 70.8288 177.817 71.7086C177.273 72.8182 176.959 74.0063 176.78 75.2224C176.55 76.7411 177.077 78.0861 177.878 79.3358C179.386 81.6726 181.151 83.791 183.269 85.6067C183.387 85.7076 183.544 85.8084 183.499 85.9822C183.449 86.1559 183.269 86.1783 183.107 86.1783C181.7 86.1839 180.305 86.3576 178.904 86.4473C176.348 86.6042 173.793 86.806 171.238 86.9461C170.078 87.0077 168.85 87.428 167.724 86.4697C166.312 85.276 165.353 83.8414 164.692 82.149C164.048 80.507 164.132 78.8426 164.283 77.139C164.49 74.8077 164.995 72.5717 165.897 70.4141C167.404 66.8163 169.775 63.9806 173.149 62.008C175.452 60.6574 177.94 59.9009 180.596 59.6095C184.693 59.1499 188.7 59.447 192.55 60.9881C196.058 62.3891 198.361 64.8717 198.899 68.6993C199.163 70.571 198.894 72.4428 198.316 74.2529C198.036 75.1439 197.734 76.035 197.476 76.9316C197.336 77.4192 197.067 77.6097 196.557 77.5985C194.853 77.5761 193.155 77.5873 191.451 77.5929L191.446 77.5873Z" fill="#9E223B"/>
<path d="M145.947 56.6228C141.626 56.6228 137.305 56.6228 132.985 56.6228C131.97 56.6228 131.948 56.6004 132.262 55.6029C132.957 53.3893 133.668 51.1869 134.369 48.9733C136.577 42.0018 138.779 35.036 140.987 28.0646C141.167 27.493 141.368 26.9213 141.509 26.3385C141.654 25.7165 141.979 25.6548 142.528 25.8454C143.476 26.1704 144.445 26.4282 145.403 26.7196C147.662 27.4089 149.915 28.115 152.179 28.7931C152.722 28.9556 152.868 29.1798 152.683 29.7514C151.327 33.9264 149.993 38.1126 148.659 42.2933C148.183 43.7783 147.751 45.2802 147.247 46.7541C147.068 47.2865 147.18 47.4042 147.718 47.3986C152.442 47.3817 157.166 47.3873 161.89 47.3929C162.77 47.3929 162.77 47.3929 162.49 48.2448C161.655 50.789 160.798 53.322 159.996 55.8719C159.817 56.4435 159.565 56.634 158.971 56.6284C154.628 56.606 150.284 56.6172 145.941 56.6172L145.947 56.6228Z" fill="#9E223B"/>
<path d="M144.276 91.6094C145.448 91.6094 145.436 91.6094 145.151 92.506C143.677 97.1798 142.197 101.854 140.74 106.539C140.572 107.082 140.292 107.368 139.72 107.53C135.825 108.657 131.942 109.834 128.058 110.988C127.851 111.05 127.587 111.162 127.431 111.011C127.246 110.831 127.453 110.585 127.515 110.389C129.207 105.009 130.911 99.6344 132.614 94.2601C132.715 93.9407 132.838 93.6268 132.889 93.2962C133.007 92.5228 133.517 92.3155 134.2 92.2819C136.537 92.153 138.88 92.0633 141.205 91.8503C142.292 91.7495 143.391 91.8447 144.276 91.6094Z" fill="#9E223B"/>
<path d="M142.775 22.7915C143.05 21.9061 143.325 20.987 143.61 20.0735C145.067 15.3942 146.524 10.7092 147.976 6.02979C148.279 5.06029 148.323 5.03787 149.17 5.59828C151.988 7.44761 154.785 9.31937 157.632 11.1183C158.315 11.5498 158.377 11.9757 158.159 12.6482C157.402 14.9795 156.673 17.322 155.945 19.6588C155.3 21.7211 154.65 23.7834 154.034 25.8569C153.877 26.3837 153.664 26.479 153.126 26.3109C149.915 25.3133 146.681 24.3663 143.465 23.3855C143.19 23.3015 142.753 23.3239 142.781 22.7915H142.775Z" fill="#9E223B"/>
<path d="M31.7138 57.1604C30.6827 57.1604 29.6515 57.1267 28.626 57.1716C27.5052 57.222 26.4012 56.9642 25.2804 57.0203C24.6639 57.0539 24.8601 56.656 24.961 56.3534C25.5718 54.5097 26.1994 52.6771 26.7991 50.8278C27.791 47.796 28.7661 44.7642 29.7468 41.7268C30.0719 40.7181 30.0719 40.7069 31.0974 40.9871C34.1964 41.8165 37.2899 42.6683 40.3945 43.4809C40.8877 43.6098 40.9942 43.8059 40.8428 44.271C40.0583 46.7088 39.2905 49.1578 38.5172 51.6012C37.996 53.26 37.458 54.9131 36.9536 56.5775C36.8191 57.0147 36.6006 57.1716 36.141 57.166C34.6616 57.138 33.1877 57.1548 31.7082 57.1548L31.7138 57.1604Z" fill="#9E223B"/>
<path d="M110.624 3.65439C110.64 6.66937 110.388 9.68435 110.495 12.7049C110.517 13.2934 110.287 13.383 109.772 13.2261C107.469 12.5312 105.154 11.8643 102.851 11.1694C99.2026 10.071 95.56 8.94462 91.9117 7.85743C91.4466 7.71733 91.3177 7.57163 91.5643 7.12891C92.2031 5.98007 92.8252 4.82004 93.4416 3.65439C93.593 3.36859 93.8451 3.2509 94.1365 3.18926C99.4212 2.13569 104.706 1.09334 109.985 0.0229655C110.506 -0.0835115 110.624 0.107026 110.618 0.560955C110.607 1.5921 110.618 2.61764 110.618 3.64879L110.624 3.65439Z" fill="#9E223B"/>
<path d="M11.9078 53.9391C11.0167 53.0984 10.1705 52.3083 9.32991 51.5069C9.16739 51.3556 9.0441 51.1651 8.89279 51.0025C6.99301 49.0131 5.10445 47.0124 3.18786 45.0454C2.84041 44.6868 2.94128 44.3561 3.04776 44.0087C3.57454 42.2602 4.11253 40.5117 4.65052 38.7633C5.0316 37.5304 5.4519 36.3031 5.78814 35.0534C5.92824 34.5434 6.12999 34.4818 6.59513 34.6051C9.8679 35.4905 13.1407 36.3479 16.419 37.2166C16.8393 37.3286 16.9963 37.5248 16.8505 37.9955C16.1669 40.1643 15.5168 42.3443 14.8499 44.5186C13.9701 47.3935 13.0846 50.274 12.1992 53.1489C12.1151 53.4235 12.003 53.6925 11.9134 53.9391H11.9078Z" fill="#9E223B"/>
<path d="M46.0937 77.5878C45.4381 77.6102 44.6031 77.5486 43.7625 77.3524C41.3023 76.7808 40.6242 74.9931 40.9716 72.858C41.2799 70.9806 42.07 69.2378 42.5968 67.422C42.9891 66.0715 43.4374 64.7433 44.0931 63.4936C45.0962 61.5882 46.6429 60.5571 48.7837 60.2825C50.4537 60.0695 52.0284 60.2433 53.5247 60.9998C54.7408 61.6162 55.4357 63.163 55.1947 64.5135C54.5895 67.8424 53.4294 71.003 52.2358 74.1469C51.3728 76.4222 49.5851 77.5878 47.1641 77.5934C46.8727 77.5934 46.5813 77.5934 46.0937 77.5934V77.5878ZM46.3683 74.8138C47.321 74.8642 47.9319 74.3823 48.3578 73.6369C48.8621 72.7627 49.1367 71.7932 49.4394 70.8405C50.0726 68.8455 50.8124 66.8785 51.3335 64.8498C51.6137 63.7682 50.7227 62.9164 49.6187 63.0229C48.4138 63.1406 47.7245 63.8859 47.3827 64.8722C46.4636 67.4949 45.4269 70.0896 44.844 72.8188C44.5919 74.0068 45.2251 74.8138 46.3683 74.8082V74.8138Z" fill="#9E223B"/>
<path d="M72.051 116.772C71.2328 117.085 70.3417 117.085 69.4787 117.22C67.0858 117.595 64.6816 117.92 62.2831 118.262C59.9686 118.593 57.6598 118.918 55.3453 119.249C54.5103 119.366 53.6697 119.484 52.8403 119.624C52.0333 119.758 51.91 119.624 52.1622 118.867C53.3166 115.399 54.4711 111.924 55.6255 108.455C55.8945 107.654 55.8889 107.676 56.6118 108.08C58.9711 109.391 61.3416 110.68 63.7065 111.98C66.4021 113.465 69.0976 114.95 71.7932 116.435C71.9053 116.497 72.051 116.536 72.0566 116.777L72.051 116.772Z" fill="#9E223B"/>
<path d="M62.9001 60.2996C64.0882 60.2996 65.2762 60.2996 66.4587 60.2996C67.0826 60.2996 67.3105 60.591 67.1424 61.1738C67.0191 61.5997 66.8678 62.0256 66.7669 62.4571C66.6324 63.0231 66.341 63.2529 65.7302 63.2249C64.5029 63.1744 63.2644 63.2249 62.0371 63.2025C61.628 63.1969 61.4206 63.3426 61.3086 63.718C61.0059 64.6987 60.6977 65.6738 60.3727 66.649C60.2438 67.0356 60.3559 67.1645 60.765 67.1589C61.9306 67.1421 63.0963 67.1477 64.2563 67.1589C64.9344 67.1645 64.9904 67.2542 64.7887 67.9211C64.727 68.134 64.6486 68.347 64.5869 68.5599C64.0545 70.3532 64.374 70.0338 62.5863 70.0674C61.7793 70.0786 60.9723 70.1067 60.1653 70.0562C59.5769 70.0226 59.2855 70.2131 59.1174 70.796C58.529 72.8078 57.8677 74.7973 57.268 76.8035C57.1223 77.2967 56.8926 77.4872 56.377 77.4704C55.5028 77.4368 54.6285 77.4424 53.7543 77.4704C53.2667 77.4816 53.1154 77.3471 53.2723 76.8483C54.1186 74.192 54.9424 71.5301 55.7718 68.8738C56.5899 66.2567 57.4137 63.6396 58.2039 61.0169C58.3664 60.4733 58.6242 60.2771 59.1902 60.2996C60.4231 60.3388 61.656 60.3108 62.8833 60.3108L62.9001 60.2996Z" fill="#9E223B"/>
</g>
<defs>
<clipPath id="clip0_1217_1248">
<rect width="199" height="119.669" fill="white"/>
</clipPath>
</defs>
</svg>
