<svg width="100%" height="100%" viewBox="0 0 144 24" fill="none" xmlns="http://www.w3.org/2000/svg">
<path d="M24.459 0H0.458984V23.9997H24.459V0Z" fill="#5740CE"/>
<path d="M21.0159 0H3.90039V11.9999H21.0159V0Z" fill="#FAF9F0"/>
<path d="M21.0159 12.0001H3.90039V24H21.0159V12.0001Z" fill="#C8C6D2"/>
<path d="M18.4833 14.3985H15.0449V21.5984H18.4833V14.3985Z" fill="#5740CE"/>
<g clip-path="url(#clip0_1140_16384)">
<path d="M48.7462 10.3139H46.0936L45.9785 9.57505C45.8938 9.06281 45.7476 8.56267 45.5431 8.08548C44.9657 6.7497 43.9797 5.8807 42.5722 5.49674C41.4714 5.18965 40.3108 5.16744 39.1991 5.43221C37.6508 5.80003 36.5648 6.7411 35.8841 8.16506C35.5292 8.93174 35.3039 9.75202 35.2175 10.5925C35.0669 11.8021 35.1295 13.0289 35.4024 14.2169C35.6067 15.0773 35.9293 15.8861 36.4712 16.5949C37.0924 17.4298 37.977 18.0308 38.9819 18.3006C40.2105 18.6425 41.5117 18.6223 42.7291 18.2425C44.213 17.7897 45.1624 16.7755 45.6807 15.3365C45.8742 14.7773 46.0033 14.1965 46.0667 13.6082C46.0721 13.5609 46.0807 13.5146 46.0904 13.4544H48.7677C48.7118 13.8308 48.671 14.1933 48.6043 14.5492C48.371 15.8108 47.9108 16.9788 47.128 18.0059C46.0742 19.3912 44.6807 20.2623 42.9947 20.6581C41.2926 21.0582 39.5905 21.0378 37.9249 20.4806C35.7798 19.7633 34.2863 18.3146 33.3541 16.2733C32.8818 15.2205 32.5972 14.0933 32.5132 12.9424C32.3842 11.5669 32.5035 10.1795 32.8681 8.84693C33.296 7.32402 34.0401 5.9861 35.2099 4.90307C36.2389 3.94609 37.5195 3.30251 38.9013 3.04782C40.4744 2.74561 42.0431 2.7897 43.57 3.28874C46.0291 4.09321 47.5946 5.7839 48.3656 8.23282C48.5505 8.86378 48.6771 9.50657 48.7452 10.1612C48.748 10.2114 48.7484 10.2616 48.7462 10.3118M96.6969 12.779C96.7129 12.2219 96.5384 11.676 96.2021 11.2317C95.8658 10.7873 95.3879 10.4712 94.8475 10.3354C94.1039 10.1445 93.3233 10.1512 92.583 10.3548C91.4938 10.6549 90.8734 11.4206 90.8067 12.5488C90.7938 12.7585 90.8046 12.9683 90.8046 13.1726C90.611 13.2318 88.4723 13.2447 88.1573 13.1887C88.1702 12.8983 88.1594 12.5972 88.2003 12.3047C88.4949 10.1408 89.7314 8.76412 91.7916 8.12312C93.0489 7.72841 94.396 7.72166 95.6571 8.10376C97.5625 8.66948 98.7302 9.96008 99.2323 11.8659C99.3829 12.4811 99.4517 13.1135 99.4377 13.7458V18.292H101.169V20.6592C101.106 20.6692 101.044 20.6757 100.982 20.6785C100.218 20.6807 99.4549 20.6839 98.6915 20.6764C98.5212 20.6757 98.3515 20.6547 98.1861 20.614C97.4259 20.4312 96.9797 19.8472 96.9528 19.0137C96.9566 18.824 96.9436 18.6343 96.9141 18.4469C96.884 18.4885 96.8553 18.5308 96.8281 18.5738C96.0711 19.8859 94.9314 20.628 93.4389 20.8431C92.4873 20.9786 91.5411 20.9549 90.6218 20.6527C89.1949 20.1838 88.3917 19.1814 88.1734 17.7037C88.0738 17.1265 88.0961 16.5348 88.239 15.9668C88.5057 14.9881 89.1164 14.2836 90.0132 13.8201C90.6305 13.5085 91.3002 13.3141 91.9884 13.2468L96.0582 12.8478L96.6969 12.779ZM96.7292 14.9644L96.2066 15.0074L92.6002 15.3838C92.1947 15.4126 91.7972 15.5108 91.425 15.6742C91.0701 15.8452 90.8476 16.1216 90.8121 16.5174C90.7906 16.7361 90.7963 16.9541 90.8293 17.1713C90.9508 17.9134 91.3239 18.2984 92.0615 18.4598C92.7884 18.6189 93.5023 18.52 94.197 18.2963C94.9092 18.0669 95.5339 17.6244 95.9868 17.0285C96.4396 16.4327 96.6987 15.7122 96.7292 14.9644ZM142.54 15.1042H133.167C133.179 15.2404 133.199 15.3767 133.227 15.5129C133.311 15.8836 133.417 16.2482 133.545 16.6067C133.919 17.5391 134.609 18.1393 135.581 18.4028C136.335 18.6146 137.129 18.6426 137.896 18.4856C139.076 18.2425 139.836 17.5284 140.2 16.3884C140.229 16.2951 140.256 16.2019 140.281 16.1087C140.306 16.0162 140.33 15.9212 140.354 15.8237H143.047C142.973 16.1066 142.914 16.3733 142.835 16.6346C142.551 17.6127 142.03 18.5058 141.32 19.2352C140.474 20.0912 139.371 20.6465 138.18 20.8162C137.029 21.0098 135.852 20.9453 134.731 20.6248C133.012 20.1236 131.776 19.0448 131.105 17.3886C130.361 15.5538 130.266 13.6566 130.887 11.7723C131.612 9.56214 133.196 8.31348 135.478 7.93383C136.514 7.75293 137.579 7.81217 138.589 8.10699C140.544 8.68776 141.752 9.99987 142.292 11.9465C142.45 12.5257 142.532 13.1229 142.538 13.7233C142.545 14.1685 142.54 14.6149 142.54 15.1042ZM139.875 12.9145C139.883 12.8919 139.888 12.8684 139.891 12.8446C139.881 12.765 139.872 12.6832 139.856 12.6047C139.623 11.4755 138.985 10.7032 137.858 10.3784C137.097 10.1585 136.291 10.1448 135.523 10.3387C134.842 10.4892 134.232 10.8603 133.787 11.3959C133.428 11.8262 133.209 12.3562 133.161 12.9145H139.875ZM114.725 20.6689H112.101L112.084 20.3688L112.083 13.4361C112.083 12.9091 112.065 12.3821 111.921 11.8691L111.916 11.8454C111.69 10.9711 111.134 10.4494 110.241 10.2946C109.576 10.1697 108.89 10.2077 108.243 10.4053C107.443 10.6494 106.758 11.1751 106.315 11.8852C105.842 12.6166 105.613 13.4307 105.535 14.289C105.5 14.6837 105.489 15.0816 105.488 15.4785L105.486 20.3677V20.6667H102.827V8.10269H105.486C105.49 8.8394 105.486 9.57935 105.525 10.3333C105.559 10.2849 105.597 10.2397 105.627 10.1892C106.442 8.79961 107.667 8.05644 109.257 7.88221C109.968 7.79759 110.689 7.84057 111.385 8.00912C112.962 8.4006 113.97 9.39651 114.447 10.9377C114.64 11.5755 114.735 12.2391 114.732 12.9037L114.736 20.4935C114.736 20.5419 114.73 20.5903 114.725 20.6689ZM59.8277 8.09623H62.4578V20.6646H59.8385V18.4533L59.7987 18.4372C59.7654 18.472 59.7345 18.509 59.7062 18.548C58.8568 20.0106 57.5665 20.7592 55.8956 20.8947C55.0361 20.9799 54.1684 20.8723 53.3558 20.5796C52.0075 20.0709 51.1989 19.0739 50.8129 17.7101C50.6349 17.0431 50.5495 16.3548 50.5591 15.6645V8.26939C50.5591 8.22099 50.5645 8.17259 50.5688 8.09301C51.4494 8.07687 52.329 8.08978 53.2386 8.0844V15.543C53.2279 15.9979 53.2795 16.4518 53.3924 16.8928C53.4397 17.0648 53.4995 17.2319 53.5719 17.3939C53.6658 17.616 53.8061 17.8153 53.9834 17.9785C54.1607 18.1418 54.3709 18.2652 54.5999 18.3404C55.7837 18.7416 57.5127 18.6039 58.6138 17.3864C59.1837 16.7562 59.5105 16.0044 59.6794 15.1795C59.7811 14.6697 59.8306 14.1542 59.8277 13.6329V8.09623ZM126.175 15.4892H128.847L128.803 15.9754C128.661 17.3079 128.138 18.4587 127.139 19.3686C126.412 20.0237 125.531 20.4843 124.578 20.7076C123.263 21.0439 121.879 20.9901 120.594 20.5527C118.969 20.0085 117.781 18.9459 117.098 17.3778C116.228 15.3817 116.218 13.3511 117.107 11.3604C117.935 9.50622 119.412 8.40598 121.392 7.99406C122.742 7.69544 124.151 7.81395 125.433 8.33392C126.782 8.88242 127.798 9.79445 128.388 11.1442C128.669 11.7906 128.783 12.4778 128.844 13.1748C128.842 13.21 128.838 13.2452 128.833 13.2802H126.178C126.146 13.1081 126.123 12.9252 126.077 12.7489C126.015 12.4809 125.936 12.2173 125.84 11.9594C125.695 11.5694 125.456 11.2213 125.144 10.9456C124.832 10.6699 124.457 10.4751 124.052 10.3784C123.232 10.1542 122.364 10.1721 121.553 10.4301C121.116 10.5614 120.713 10.7875 120.373 11.0924C120.033 11.3972 119.764 11.7733 119.586 12.1939C119.185 13.0812 119.087 14.0169 119.176 14.9773C119.217 15.4376 119.32 15.8915 119.486 16.3227C119.984 17.6112 120.935 18.3157 122.292 18.4953C122.962 18.5899 123.646 18.5265 124.287 18.3103C124.599 18.2049 124.888 18.0388 125.136 17.8216C125.384 17.6043 125.587 17.3402 125.733 17.0444C125.931 16.6443 126.063 16.2152 126.125 15.7732L126.175 15.4892ZM79.0618 20.6721L74.9092 8.10376H77.5715L81.2789 19.4105H81.3413L85.024 8.09623H87.6627L83.5574 20.671L79.0618 20.6721ZM66.8803 20.6689H64.2137L64.1986 20.4473V9.93964C64.1932 9.62273 64.2378 9.30695 64.3309 9.00396C64.5416 8.35865 65.0018 8.00912 65.6545 7.89834C65.8237 7.87181 65.9936 7.86213 66.1642 7.8693L73.0049 8.08763C73.0522 8.0887 73.0984 8.09838 73.1587 8.10484V10.4752L66.8803 10.2666V20.6689Z" fill="currentColor"/>
</g>
<defs>
<clipPath id="clip0_1140_16384">
<rect width="110.757" height="18.2835" fill="white" transform="translate(32.459 2.85823)"/>
</clipPath>
</defs>
</svg>
