<svg width="34" height="34" viewBox="0 0 34 34" fill="none" xmlns="http://www.w3.org/2000/svg">
<path opacity="0.2" d="M29.75 10.625V25.5C29.75 25.7818 29.6381 26.052 29.4388 26.2513C29.2395 26.4506 28.9693 26.5625 28.6875 26.5625H7.4375C6.87391 26.5625 6.33341 26.3386 5.9349 25.9401C5.53638 25.5416 5.3125 25.0011 5.3125 24.4375V7.4375C5.3125 8.00109 5.53638 8.54159 5.9349 8.9401C6.33341 9.33862 6.87391 9.5625 7.4375 9.5625H28.6875C28.9693 9.5625 29.2395 9.67444 29.4388 9.8737C29.6381 10.073 29.75 10.3432 29.75 10.625Z" fill="#5740CE"/>
<path d="M28.6875 8.5H7.4375C7.15571 8.5 6.88546 8.38806 6.6862 8.1888C6.48694 7.98954 6.375 7.71929 6.375 7.4375C6.375 7.15571 6.48694 6.88546 6.6862 6.6862C6.88546 6.48694 7.15571 6.375 7.4375 6.375H25.5C25.7818 6.375 26.052 6.26306 26.2513 6.0638C26.4506 5.86454 26.5625 5.59429 26.5625 5.3125C26.5625 5.03071 26.4506 4.76046 26.2513 4.5612C26.052 4.36194 25.7818 4.25 25.5 4.25H7.4375C6.59212 4.25 5.78137 4.58583 5.1836 5.1836C4.58583 5.78137 4.25 6.59212 4.25 7.4375V24.4375C4.25 25.2829 4.58583 26.0936 5.1836 26.6914C5.78137 27.2892 6.59212 27.625 7.4375 27.625H28.6875C29.2511 27.625 29.7916 27.4011 30.1901 27.0026C30.5886 26.6041 30.8125 26.0636 30.8125 25.5V10.625C30.8125 10.0614 30.5886 9.52091 30.1901 9.1224C29.7916 8.72388 29.2511 8.5 28.6875 8.5ZM28.6875 25.5H7.4375C7.15571 25.5 6.88546 25.3881 6.6862 25.1888C6.48694 24.9895 6.375 24.7193 6.375 24.4375V10.443C6.71616 10.564 7.07554 10.6255 7.4375 10.625H28.6875V25.5ZM22.3125 17.5312C22.3125 17.216 22.406 16.9079 22.5811 16.6458C22.7562 16.3837 23.0051 16.1794 23.2963 16.0588C23.5876 15.9382 23.908 15.9066 24.2172 15.9681C24.5263 16.0296 24.8103 16.1814 25.0332 16.4043C25.2561 16.6272 25.4079 16.9112 25.4694 17.2203C25.5309 17.5295 25.4993 17.8499 25.3787 18.1412C25.2581 18.4324 25.0538 18.6813 24.7917 18.8564C24.5296 19.0315 24.2215 19.125 23.9062 19.125C23.4836 19.125 23.0782 18.9571 22.7793 18.6582C22.4804 18.3593 22.3125 17.9539 22.3125 17.5312Z" fill="#5740CE"/>
</svg>
