<svg width="38" height="38" viewBox="0 0 38 38" fill="none" xmlns="http://www.w3.org/2000/svg">
<path d="M0 10C0 4.47715 4.47715 0 10 0H28C33.5228 0 38 4.47715 38 10V28C38 33.5228 33.5228 38 28 38H10C4.47715 38 0 33.5228 0 28V10Z" fill="#06001A"/>
<path d="M24.9998 22.8369C26.4557 23.5683 27.704 24.742 28.6151 26.2096C28.7955 26.5003 28.8857 26.6456 28.9169 26.8468C28.9803 27.2558 28.7006 27.7585 28.3198 27.9204C28.1323 28 27.9215 28 27.4998 28M22.9998 18.5322C24.4816 17.7959 25.4998 16.2669 25.4998 14.5C25.4998 12.7331 24.4816 11.2041 22.9998 10.4678M20.9998 14.5C20.9998 16.9853 18.9851 19 16.4998 19C14.0146 19 11.9998 16.9853 11.9998 14.5C11.9998 12.0147 14.0146 10 16.4998 10C18.9851 10 20.9998 12.0147 20.9998 14.5ZM9.55907 25.9383C11.1534 23.5446 13.6692 22 16.4998 22C19.3305 22 21.8463 23.5446 23.4406 25.9383C23.7899 26.4628 23.9645 26.725 23.9444 27.0599C23.9287 27.3207 23.7578 27.64 23.5494 27.7976C23.2818 28 22.9137 28 22.1775 28H10.8222C10.086 28 9.71791 28 9.45028 27.7976C9.24189 27.64 9.07092 27.3207 9.05527 27.0599C9.03517 26.725 9.2098 26.4628 9.55907 25.9383Z" stroke="white" stroke-width="2" stroke-linecap="round" stroke-linejoin="round"/>
</svg>
