<svg width="34" height="34" viewBox="0 0 34 34" fill="none" xmlns="http://www.w3.org/2000/svg">
<path opacity="0.2" d="M30.8125 5.3125V18.0625L21.8729 27.0021C21.6755 27.1996 21.4411 27.3563 21.1832 27.4632C20.9252 27.5701 20.6487 27.625 20.3695 27.625H6.375V13.6305C6.37495 13.3513 6.42994 13.0748 6.53682 12.8168C6.6437 12.5589 6.80038 12.3245 6.99789 12.1271L15.9375 3.1875H28.6875C29.2511 3.1875 29.7916 3.41138 30.1901 3.8099C30.5886 4.20841 30.8125 4.74891 30.8125 5.3125Z" fill="#12AAFF"/>
<path d="M31.5642 18.8151L27.3142 23.0651C27.1149 23.2644 26.8444 23.3764 26.5625 23.3764C26.2806 23.3764 26.0101 23.2644 25.8108 23.0651C25.6114 22.8657 25.4994 22.5953 25.4994 22.3133C25.4994 22.0314 25.6114 21.761 25.8108 21.5616L28.2479 19.1258H16.3771L8.93961 26.5633H12.75C13.0318 26.5633 13.302 26.6753 13.5013 26.8745C13.7006 27.0738 13.8125 27.344 13.8125 27.6258C13.8125 27.9076 13.7006 28.1779 13.5013 28.3771C13.302 28.5764 13.0318 28.6883 12.75 28.6883H6.375C6.09321 28.6883 5.82296 28.5764 5.6237 28.3771C5.42444 28.1779 5.3125 27.9076 5.3125 27.6258V21.2508C5.3125 20.969 5.42444 20.6988 5.6237 20.4995C5.82296 20.3003 6.09321 20.1883 6.375 20.1883C6.65679 20.1883 6.92704 20.3003 7.1263 20.4995C7.32556 20.6988 7.4375 20.969 7.4375 21.2508V25.0612L14.875 17.6237V5.75295L12.4392 8.19005C12.2399 8.38942 11.9694 8.50143 11.6875 8.50143C11.4056 8.50143 11.1351 8.38942 10.9358 8.19005C10.7364 7.99069 10.6244 7.72028 10.6244 7.43834C10.6244 7.15639 10.7364 6.88599 10.9358 6.68662L15.1858 2.43662C15.2845 2.33783 15.4016 2.25946 15.5306 2.20599C15.6596 2.15252 15.7979 2.125 15.9375 2.125C16.0771 2.125 16.2154 2.15252 16.3444 2.20599C16.4734 2.25946 16.5905 2.33783 16.6892 2.43662L20.9392 6.68662C21.1386 6.88599 21.2506 7.15639 21.2506 7.43834C21.2506 7.72028 21.1386 7.99069 20.9392 8.19005C20.7399 8.38942 20.4694 8.50143 20.1875 8.50143C19.9056 8.50143 19.6351 8.38942 19.4358 8.19005L17 5.75295V17.0008H28.2479L25.8108 14.5651C25.6114 14.3657 25.4994 14.0953 25.4994 13.8133C25.4994 13.5314 25.6114 13.261 25.8108 13.0616C26.0101 12.8622 26.2806 12.7502 26.5625 12.7502C26.8444 12.7502 27.1149 12.8622 27.3142 13.0616L31.5642 17.3116C31.663 17.4103 31.7414 17.5275 31.7948 17.6565C31.8483 17.7854 31.8758 17.9237 31.8758 18.0633C31.8758 18.203 31.8483 18.3412 31.7948 18.4702C31.7414 18.5992 31.663 18.7164 31.5642 18.8151Z" fill="#12AAFF"/>
</svg>
