<svg width="100%" height="100%" viewBox="0 0 472 408" fill="none" xmlns="http://www.w3.org/2000/svg">
<circle cx="2.832" cy="19.9199" r="2.832" fill="#FAF9FC"/>
<circle cx="2.832" cy="44.4638" r="2.832" fill="#FAF9FC"/>
<circle cx="2.832" cy="69.0078" r="2.832" fill="#FAF9FC"/>
<circle cx="2.832" cy="93.5517" r="2.832" fill="#FAF9FC"/>
<circle cx="2.832" cy="118.096" r="2.832" fill="#FAF9FC"/>
<circle cx="2.832" cy="142.64" r="2.832" fill="#FAF9FC"/>
<circle cx="2.832" cy="167.184" r="2.832" fill="#FAF9FC"/>
<circle cx="2.832" cy="191.728" r="2.832" fill="#FAF9FC"/>
<circle cx="2.832" cy="216.272" r="2.832" fill="#FAF9FC"/>
<circle cx="2.832" cy="240.816" r="2.832" fill="#FAF9FC"/>
<circle cx="2.832" cy="265.36" r="2.832" fill="#FAF9FC"/>
<circle cx="2.832" cy="289.904" r="2.832" fill="#FAF9FC"/>
<circle cx="2.832" cy="314.448" r="2.832" fill="#FAF9FC"/>
<circle cx="2.832" cy="338.992" r="2.832" fill="#FAF9FC"/>
<circle cx="2.832" cy="363.536" r="2.832" fill="#FAF9FC"/>
<circle cx="2.832" cy="388.08" r="2.832" fill="#FAF9FC"/>
<circle cx="27.3759" cy="19.9199" r="2.832" fill="#FAF9FC"/>
<circle cx="27.3759" cy="44.4638" r="2.832" fill="#FAF9FC"/>
<circle cx="27.3759" cy="69.0078" r="2.832" fill="#FAF9FC"/>
<circle cx="27.3759" cy="93.5517" r="2.832" fill="#FAF9FC"/>
<circle cx="27.3759" cy="118.096" r="2.832" fill="#FAF9FC"/>
<circle cx="27.3759" cy="142.64" r="2.832" fill="#FAF9FC"/>
<circle cx="27.3759" cy="167.184" r="2.832" fill="#FAF9FC"/>
<circle cx="27.3759" cy="191.728" r="2.832" fill="#FAF9FC"/>
<circle cx="27.3759" cy="216.272" r="2.832" fill="#FAF9FC"/>
<circle cx="27.3759" cy="240.816" r="2.832" fill="#FAF9FC"/>
<circle cx="27.3759" cy="265.36" r="2.832" fill="#FAF9FC"/>
<circle cx="27.3759" cy="289.904" r="2.832" fill="#FAF9FC"/>
<circle cx="27.3759" cy="314.448" r="2.832" fill="#FAF9FC"/>
<circle cx="27.3759" cy="338.992" r="2.832" fill="#FAF9FC"/>
<circle cx="27.3759" cy="363.536" r="2.832" fill="#FAF9FC"/>
<circle cx="27.3759" cy="388.08" r="2.832" fill="#FAF9FC"/>
<circle cx="51.92" cy="19.9199" r="2.832" fill="#FAF9FC"/>
<circle cx="51.92" cy="44.4638" r="2.832" fill="#FAF9FC"/>
<circle cx="51.92" cy="69.0078" r="2.832" fill="#FAF9FC"/>
<circle cx="51.92" cy="93.5517" r="2.832" fill="#FAF9FC"/>
<circle cx="51.92" cy="118.096" r="2.832" fill="#FAF9FC"/>
<circle cx="51.92" cy="142.64" r="2.832" fill="#FAF9FC"/>
<circle cx="51.92" cy="167.184" r="2.832" fill="#FAF9FC"/>
<circle cx="51.92" cy="191.728" r="2.832" fill="#FAF9FC"/>
<circle cx="51.92" cy="216.272" r="2.832" fill="#FAF9FC"/>
<circle cx="51.92" cy="240.816" r="2.832" fill="#FAF9FC"/>
<circle cx="51.92" cy="265.36" r="2.832" fill="#FAF9FC"/>
<circle cx="51.92" cy="289.904" r="2.832" fill="#FAF9FC"/>
<circle cx="51.92" cy="314.448" r="2.832" fill="#FAF9FC"/>
<circle cx="51.92" cy="338.992" r="2.832" fill="#FAF9FC"/>
<circle cx="51.92" cy="363.536" r="2.832" fill="#FAF9FC"/>
<circle cx="51.92" cy="388.08" r="2.832" fill="#FAF9FC"/>
<circle cx="76.464" cy="19.9199" r="2.832" fill="#FAF9FC"/>
<circle cx="76.464" cy="44.4638" r="2.832" fill="#FAF9FC"/>
<circle cx="76.464" cy="69.0078" r="2.832" fill="#FAF9FC"/>
<circle cx="76.464" cy="93.5517" r="2.832" fill="#FAF9FC"/>
<circle cx="76.464" cy="118.096" r="2.832" fill="#FAF9FC"/>
<circle cx="76.464" cy="142.64" r="2.832" fill="#FAF9FC"/>
<circle cx="76.464" cy="167.184" r="2.832" fill="#FAF9FC"/>
<circle cx="76.464" cy="191.728" r="2.832" fill="#FAF9FC"/>
<circle cx="76.464" cy="216.272" r="2.832" fill="#FAF9FC"/>
<circle cx="76.464" cy="240.816" r="2.832" fill="#FAF9FC"/>
<circle cx="76.464" cy="265.36" r="2.832" fill="#FAF9FC"/>
<circle cx="76.464" cy="289.904" r="2.832" fill="#FAF9FC"/>
<circle cx="76.464" cy="314.448" r="2.832" fill="#FAF9FC"/>
<circle cx="76.464" cy="338.992" r="2.832" fill="#FAF9FC"/>
<circle cx="76.464" cy="363.536" r="2.832" fill="#FAF9FC"/>
<circle cx="76.464" cy="388.08" r="2.832" fill="#FAF9FC"/>
<circle cx="101.008" cy="19.9199" r="2.832" fill="#FAF9FC"/>
<circle cx="101.008" cy="44.4638" r="2.832" fill="#FAF9FC"/>
<circle cx="101.008" cy="69.0078" r="2.832" fill="#FAF9FC"/>
<circle cx="101.008" cy="93.5517" r="2.832" fill="#FAF9FC"/>
<circle cx="101.008" cy="118.096" r="2.832" fill="#FAF9FC"/>
<circle cx="101.008" cy="142.64" r="2.832" fill="#FAF9FC"/>
<circle cx="101.008" cy="167.184" r="2.832" fill="#FAF9FC"/>
<circle cx="101.008" cy="191.728" r="2.832" fill="#FAF9FC"/>
<circle cx="101.008" cy="216.272" r="2.832" fill="#FAF9FC"/>
<circle cx="101.008" cy="240.816" r="2.832" fill="#FAF9FC"/>
<circle cx="101.008" cy="265.36" r="2.832" fill="#FAF9FC"/>
<circle cx="101.008" cy="289.904" r="2.832" fill="#FAF9FC"/>
<circle cx="101.008" cy="314.448" r="2.832" fill="#FAF9FC"/>
<circle cx="101.008" cy="338.992" r="2.832" fill="#FAF9FC"/>
<circle cx="101.008" cy="363.536" r="2.832" fill="#FAF9FC"/>
<circle cx="101.008" cy="388.08" r="2.832" fill="#FAF9FC"/>
<circle cx="125.552" cy="19.9199" r="2.832" fill="#FAF9FC"/>
<circle cx="125.552" cy="44.4638" r="2.832" fill="#FAF9FC"/>
<circle cx="125.552" cy="69.0078" r="2.832" fill="#FAF9FC"/>
<circle cx="125.552" cy="93.5517" r="2.832" fill="#FAF9FC"/>
<circle cx="125.552" cy="118.096" r="2.832" fill="#FAF9FC"/>
<circle cx="125.552" cy="142.64" r="2.832" fill="#FAF9FC"/>
<circle cx="125.552" cy="167.184" r="2.832" fill="#FAF9FC"/>
<circle cx="125.552" cy="191.728" r="2.832" fill="#FAF9FC"/>
<circle cx="125.552" cy="216.272" r="2.832" fill="#FAF9FC"/>
<circle cx="125.552" cy="240.816" r="2.832" fill="#FAF9FC"/>
<circle cx="125.552" cy="265.36" r="2.832" fill="#FAF9FC"/>
<circle cx="125.552" cy="289.904" r="2.832" fill="#FAF9FC"/>
<circle cx="125.552" cy="314.448" r="2.832" fill="#FAF9FC"/>
<circle cx="125.552" cy="338.992" r="2.832" fill="#FAF9FC"/>
<circle cx="125.552" cy="363.536" r="2.832" fill="#FAF9FC"/>
<circle cx="125.552" cy="388.08" r="2.832" fill="#FAF9FC"/>
<circle cx="150.096" cy="19.9199" r="2.832" fill="#FAF9FC"/>
<circle cx="150.096" cy="44.4638" r="2.832" fill="#FAF9FC"/>
<circle cx="150.096" cy="69.0078" r="2.832" fill="#FAF9FC"/>
<circle cx="150.096" cy="93.5517" r="2.832" fill="#FAF9FC"/>
<circle cx="150.096" cy="118.096" r="2.832" fill="#FAF9FC"/>
<circle cx="150.096" cy="142.64" r="2.832" fill="#FAF9FC"/>
<circle cx="150.096" cy="167.184" r="2.832" fill="#FAF9FC"/>
<circle cx="150.096" cy="191.728" r="2.832" fill="#FAF9FC"/>
<circle cx="150.096" cy="216.272" r="2.832" fill="#FAF9FC"/>
<circle cx="150.096" cy="240.816" r="2.832" fill="#FAF9FC"/>
<circle cx="150.096" cy="265.36" r="2.832" fill="#FAF9FC"/>
<circle cx="150.096" cy="289.904" r="2.832" fill="#FAF9FC"/>
<circle cx="150.096" cy="314.448" r="2.832" fill="#FAF9FC"/>
<circle cx="150.096" cy="338.992" r="2.832" fill="#FAF9FC"/>
<circle cx="150.096" cy="363.536" r="2.832" fill="#FAF9FC"/>
<circle cx="150.096" cy="388.08" r="2.832" fill="#FAF9FC"/>
<circle cx="174.64" cy="19.9199" r="2.832" fill="#FAF9FC"/>
<circle cx="174.64" cy="44.4638" r="2.832" fill="#FAF9FC"/>
<circle cx="174.64" cy="69.0078" r="2.832" fill="#FAF9FC"/>
<circle cx="174.64" cy="93.5517" r="2.832" fill="#FAF9FC"/>
<circle cx="174.64" cy="118.096" r="2.832" fill="#FAF9FC"/>
<circle cx="174.64" cy="142.64" r="2.832" fill="#FAF9FC"/>
<circle cx="174.64" cy="167.184" r="2.832" fill="#FAF9FC"/>
<circle cx="174.64" cy="191.728" r="2.832" fill="#FAF9FC"/>
<circle cx="174.64" cy="216.272" r="2.832" fill="#FAF9FC"/>
<circle cx="174.64" cy="240.816" r="2.832" fill="#FAF9FC"/>
<circle cx="174.64" cy="265.36" r="2.832" fill="#FAF9FC"/>
<circle cx="174.64" cy="289.904" r="2.832" fill="#FAF9FC"/>
<circle cx="174.64" cy="314.448" r="2.832" fill="#FAF9FC"/>
<circle cx="174.64" cy="338.992" r="2.832" fill="#FAF9FC"/>
<circle cx="174.64" cy="363.536" r="2.832" fill="#FAF9FC"/>
<circle cx="174.64" cy="388.08" r="2.832" fill="#FAF9FC"/>
<circle cx="199.184" cy="19.9199" r="2.832" fill="#FAF9FC"/>
<circle cx="199.184" cy="44.4638" r="2.832" fill="#FAF9FC"/>
<circle cx="199.184" cy="69.0078" r="2.832" fill="#FAF9FC"/>
<circle cx="199.184" cy="93.5517" r="2.832" fill="#FAF9FC"/>
<circle cx="199.184" cy="118.096" r="2.832" fill="#FAF9FC"/>
<circle cx="199.184" cy="142.64" r="2.832" fill="#FAF9FC"/>
<circle cx="199.184" cy="167.184" r="2.832" fill="#FAF9FC"/>
<circle cx="199.184" cy="191.728" r="2.832" fill="#FAF9FC"/>
<circle cx="199.184" cy="216.272" r="2.832" fill="#FAF9FC"/>
<circle cx="199.184" cy="240.816" r="2.832" fill="#FAF9FC"/>
<circle cx="199.184" cy="265.36" r="2.832" fill="#FAF9FC"/>
<circle cx="199.184" cy="289.904" r="2.832" fill="#FAF9FC"/>
<circle cx="199.184" cy="314.448" r="2.832" fill="#FAF9FC"/>
<circle cx="199.184" cy="338.992" r="2.832" fill="#FAF9FC"/>
<circle cx="199.184" cy="363.536" r="2.832" fill="#FAF9FC"/>
<circle cx="199.184" cy="388.08" r="2.832" fill="#FAF9FC"/>
<circle cx="223.728" cy="19.9199" r="2.832" fill="#FAF9FC"/>
<circle cx="223.728" cy="44.4638" r="2.832" fill="#FAF9FC"/>
<circle cx="223.728" cy="69.0078" r="2.832" fill="#FAF9FC"/>
<circle cx="223.728" cy="93.5517" r="2.832" fill="#FAF9FC"/>
<circle cx="223.728" cy="118.096" r="2.832" fill="#FAF9FC"/>
<circle cx="223.728" cy="142.64" r="2.832" fill="#FAF9FC"/>
<circle cx="223.728" cy="167.184" r="2.832" fill="#FAF9FC"/>
<circle cx="223.728" cy="191.728" r="2.832" fill="#FAF9FC"/>
<circle cx="223.728" cy="216.272" r="2.832" fill="#FAF9FC"/>
<circle cx="223.728" cy="240.816" r="2.832" fill="#FAF9FC"/>
<circle cx="223.728" cy="265.36" r="2.832" fill="#FAF9FC"/>
<circle cx="223.728" cy="289.904" r="2.832" fill="#FAF9FC"/>
<circle cx="223.728" cy="314.448" r="2.832" fill="#FAF9FC"/>
<circle cx="223.728" cy="338.992" r="2.832" fill="#FAF9FC"/>
<circle cx="223.728" cy="363.536" r="2.832" fill="#FAF9FC"/>
<circle cx="223.728" cy="388.08" r="2.832" fill="#FAF9FC"/>
<circle cx="248.272" cy="19.9199" r="2.832" fill="#FAF9FC"/>
<circle cx="248.272" cy="44.4638" r="2.832" fill="#FAF9FC"/>
<circle cx="248.272" cy="69.0078" r="2.832" fill="#FAF9FC"/>
<circle cx="248.272" cy="93.5517" r="2.832" fill="#FAF9FC"/>
<circle cx="248.272" cy="118.096" r="2.832" fill="#FAF9FC"/>
<circle cx="248.272" cy="142.64" r="2.832" fill="#FAF9FC"/>
<circle cx="248.272" cy="167.184" r="2.832" fill="#FAF9FC"/>
<circle cx="248.272" cy="191.728" r="2.832" fill="#FAF9FC"/>
<circle cx="248.272" cy="216.272" r="2.832" fill="#FAF9FC"/>
<circle cx="248.272" cy="240.816" r="2.832" fill="#FAF9FC"/>
<circle cx="248.272" cy="265.36" r="2.832" fill="#FAF9FC"/>
<circle cx="248.272" cy="289.904" r="2.832" fill="#FAF9FC"/>
<circle cx="248.272" cy="314.448" r="2.832" fill="#FAF9FC"/>
<circle cx="248.272" cy="338.992" r="2.832" fill="#FAF9FC"/>
<circle cx="248.272" cy="363.536" r="2.832" fill="#FAF9FC"/>
<circle cx="248.272" cy="388.08" r="2.832" fill="#FAF9FC"/>
<circle cx="272.816" cy="19.9199" r="2.832" fill="#FAF9FC"/>
<circle cx="272.816" cy="44.4638" r="2.832" fill="#FAF9FC"/>
<circle cx="272.816" cy="69.0078" r="2.832" fill="#FAF9FC"/>
<circle cx="272.816" cy="93.5517" r="2.832" fill="#FAF9FC"/>
<circle cx="272.816" cy="118.096" r="2.832" fill="#FAF9FC"/>
<circle cx="272.816" cy="142.64" r="2.832" fill="#FAF9FC"/>
<circle cx="272.816" cy="167.184" r="2.832" fill="#FAF9FC"/>
<circle cx="272.816" cy="191.728" r="2.832" fill="#FAF9FC"/>
<circle cx="272.816" cy="216.272" r="2.832" fill="#FAF9FC"/>
<circle cx="272.816" cy="240.816" r="2.832" fill="#FAF9FC"/>
<circle cx="272.816" cy="265.36" r="2.832" fill="#FAF9FC"/>
<circle cx="272.816" cy="289.904" r="2.832" fill="#FAF9FC"/>
<circle cx="272.816" cy="314.448" r="2.832" fill="#FAF9FC"/>
<circle cx="272.816" cy="338.992" r="2.832" fill="#FAF9FC"/>
<circle cx="272.816" cy="363.536" r="2.832" fill="#FAF9FC"/>
<circle cx="272.816" cy="388.08" r="2.832" fill="#FAF9FC"/>
<circle cx="297.36" cy="19.9199" r="2.832" fill="#FAF9FC"/>
<circle cx="297.36" cy="44.4638" r="2.832" fill="#FAF9FC"/>
<circle cx="297.36" cy="69.0078" r="2.832" fill="#FAF9FC"/>
<circle cx="297.36" cy="93.5517" r="2.832" fill="#FAF9FC"/>
<circle cx="297.36" cy="118.096" r="2.832" fill="#FAF9FC"/>
<circle cx="297.36" cy="142.64" r="2.832" fill="#FAF9FC"/>
<circle cx="297.36" cy="167.184" r="2.832" fill="#FAF9FC"/>
<circle cx="297.36" cy="191.728" r="2.832" fill="#FAF9FC"/>
<circle cx="297.36" cy="216.272" r="2.832" fill="#FAF9FC"/>
<circle cx="297.36" cy="240.816" r="2.832" fill="#FAF9FC"/>
<circle cx="297.36" cy="265.36" r="2.832" fill="#FAF9FC"/>
<circle cx="297.36" cy="289.904" r="2.832" fill="#FAF9FC"/>
<circle cx="297.36" cy="314.448" r="2.832" fill="#FAF9FC"/>
<circle cx="297.36" cy="338.992" r="2.832" fill="#FAF9FC"/>
<circle cx="297.36" cy="363.536" r="2.832" fill="#FAF9FC"/>
<circle cx="297.36" cy="388.08" r="2.832" fill="#FAF9FC"/>
<circle cx="321.904" cy="19.9199" r="2.832" fill="#FAF9FC"/>
<circle cx="321.904" cy="44.4638" r="2.832" fill="#FAF9FC"/>
<circle cx="321.904" cy="69.0078" r="2.832" fill="#FAF9FC"/>
<circle cx="321.904" cy="93.5517" r="2.832" fill="#FAF9FC"/>
<circle cx="321.904" cy="118.096" r="2.832" fill="#FAF9FC"/>
<circle cx="321.904" cy="142.64" r="2.832" fill="#FAF9FC"/>
<circle cx="321.904" cy="167.184" r="2.832" fill="#FAF9FC"/>
<circle cx="321.904" cy="191.728" r="2.832" fill="#FAF9FC"/>
<circle cx="321.904" cy="216.272" r="2.832" fill="#FAF9FC"/>
<circle cx="321.904" cy="240.816" r="2.832" fill="#FAF9FC"/>
<circle cx="321.904" cy="265.36" r="2.832" fill="#FAF9FC"/>
<circle cx="321.904" cy="289.904" r="2.832" fill="#FAF9FC"/>
<circle cx="321.904" cy="314.448" r="2.832" fill="#FAF9FC"/>
<circle cx="321.904" cy="338.992" r="2.832" fill="#FAF9FC"/>
<circle cx="321.904" cy="363.536" r="2.832" fill="#FAF9FC"/>
<circle cx="321.904" cy="388.08" r="2.832" fill="#FAF9FC"/>
<circle cx="346.448" cy="19.9199" r="2.832" fill="#FAF9FC"/>
<circle cx="346.448" cy="44.4638" r="2.832" fill="#FAF9FC"/>
<circle cx="346.448" cy="69.0078" r="2.832" fill="#FAF9FC"/>
<circle cx="346.448" cy="93.5517" r="2.832" fill="#FAF9FC"/>
<circle cx="346.448" cy="118.096" r="2.832" fill="#FAF9FC"/>
<circle cx="346.448" cy="142.64" r="2.832" fill="#FAF9FC"/>
<circle cx="346.448" cy="167.184" r="2.832" fill="#FAF9FC"/>
<circle cx="346.448" cy="191.728" r="2.832" fill="#FAF9FC"/>
<circle cx="346.448" cy="216.272" r="2.832" fill="#FAF9FC"/>
<circle cx="346.448" cy="240.816" r="2.832" fill="#FAF9FC"/>
<circle cx="346.448" cy="265.36" r="2.832" fill="#FAF9FC"/>
<circle cx="346.448" cy="289.904" r="2.832" fill="#FAF9FC"/>
<circle cx="346.448" cy="314.448" r="2.832" fill="#FAF9FC"/>
<circle cx="346.448" cy="338.992" r="2.832" fill="#FAF9FC"/>
<circle cx="346.448" cy="363.536" r="2.832" fill="#FAF9FC"/>
<circle cx="346.448" cy="388.08" r="2.832" fill="#FAF9FC"/>
<circle cx="370.992" cy="19.9199" r="2.832" fill="#FAF9FC"/>
<circle cx="370.992" cy="44.4638" r="2.832" fill="#FAF9FC"/>
<circle cx="370.992" cy="69.0078" r="2.832" fill="#FAF9FC"/>
<circle cx="370.992" cy="93.5517" r="2.832" fill="#FAF9FC"/>
<circle cx="370.992" cy="118.096" r="2.832" fill="#FAF9FC"/>
<circle cx="370.992" cy="142.64" r="2.832" fill="#FAF9FC"/>
<circle cx="370.992" cy="167.184" r="2.832" fill="#FAF9FC"/>
<circle cx="370.992" cy="191.728" r="2.832" fill="#FAF9FC"/>
<circle cx="370.992" cy="216.272" r="2.832" fill="#FAF9FC"/>
<circle cx="370.992" cy="240.816" r="2.832" fill="#FAF9FC"/>
<circle cx="370.992" cy="265.36" r="2.832" fill="#FAF9FC"/>
<circle cx="370.992" cy="289.904" r="2.832" fill="#FAF9FC"/>
<circle cx="370.992" cy="314.448" r="2.832" fill="#FAF9FC"/>
<circle cx="370.992" cy="338.992" r="2.832" fill="#FAF9FC"/>
<circle cx="370.992" cy="363.536" r="2.832" fill="#FAF9FC"/>
<circle cx="370.992" cy="388.08" r="2.832" fill="#FAF9FC"/>
<circle cx="395.536" cy="19.9199" r="2.832" fill="#FAF9FC"/>
<circle cx="395.536" cy="44.4638" r="2.832" fill="#FAF9FC"/>
<circle cx="395.536" cy="69.0078" r="2.832" fill="#FAF9FC"/>
<circle cx="395.536" cy="93.5517" r="2.832" fill="#FAF9FC"/>
<circle cx="395.536" cy="118.096" r="2.832" fill="#FAF9FC"/>
<circle cx="395.536" cy="142.64" r="2.832" fill="#FAF9FC"/>
<circle cx="395.536" cy="167.184" r="2.832" fill="#FAF9FC"/>
<circle cx="395.536" cy="191.728" r="2.832" fill="#FAF9FC"/>
<circle cx="395.536" cy="216.272" r="2.832" fill="#FAF9FC"/>
<circle cx="395.536" cy="240.816" r="2.832" fill="#FAF9FC"/>
<circle cx="395.536" cy="265.36" r="2.832" fill="#FAF9FC"/>
<circle cx="395.536" cy="289.904" r="2.832" fill="#FAF9FC"/>
<circle cx="395.536" cy="314.448" r="2.832" fill="#FAF9FC"/>
<circle cx="395.536" cy="338.992" r="2.832" fill="#FAF9FC"/>
<circle cx="395.536" cy="363.536" r="2.832" fill="#FAF9FC"/>
<circle cx="395.536" cy="388.08" r="2.832" fill="#FAF9FC"/>
<circle cx="420.08" cy="19.9199" r="2.832" fill="#FAF9FC"/>
<circle cx="420.08" cy="44.4638" r="2.832" fill="#FAF9FC"/>
<circle cx="420.08" cy="69.0078" r="2.832" fill="#FAF9FC"/>
<circle cx="420.08" cy="93.5517" r="2.832" fill="#FAF9FC"/>
<circle cx="420.08" cy="118.096" r="2.832" fill="#FAF9FC"/>
<circle cx="420.08" cy="142.64" r="2.832" fill="#FAF9FC"/>
<circle cx="420.08" cy="167.184" r="2.832" fill="#FAF9FC"/>
<circle cx="420.08" cy="191.728" r="2.832" fill="#FAF9FC"/>
<circle cx="420.08" cy="216.272" r="2.832" fill="#FAF9FC"/>
<circle cx="420.08" cy="240.816" r="2.832" fill="#FAF9FC"/>
<circle cx="420.08" cy="265.36" r="2.832" fill="#FAF9FC"/>
<circle cx="420.08" cy="289.904" r="2.832" fill="#FAF9FC"/>
<circle cx="420.08" cy="314.448" r="2.832" fill="#FAF9FC"/>
<circle cx="420.08" cy="338.992" r="2.832" fill="#FAF9FC"/>
<circle cx="420.08" cy="363.536" r="2.832" fill="#FAF9FC"/>
<circle cx="420.08" cy="388.08" r="2.832" fill="#FAF9FC"/>
<circle cx="444.624" cy="19.9199" r="2.832" fill="#FAF9FC"/>
<circle cx="444.624" cy="44.4638" r="2.832" fill="#FAF9FC"/>
<circle cx="444.624" cy="69.0078" r="2.832" fill="#FAF9FC"/>
<circle cx="444.624" cy="93.5517" r="2.832" fill="#FAF9FC"/>
<circle cx="444.624" cy="118.096" r="2.832" fill="#FAF9FC"/>
<circle cx="444.624" cy="142.64" r="2.832" fill="#FAF9FC"/>
<circle cx="444.624" cy="167.184" r="2.832" fill="#FAF9FC"/>
<circle cx="444.624" cy="191.728" r="2.832" fill="#FAF9FC"/>
<circle cx="444.624" cy="216.272" r="2.832" fill="#FAF9FC"/>
<circle cx="444.624" cy="240.816" r="2.832" fill="#FAF9FC"/>
<circle cx="444.624" cy="265.36" r="2.832" fill="#FAF9FC"/>
<circle cx="444.624" cy="289.904" r="2.832" fill="#FAF9FC"/>
<circle cx="444.624" cy="314.448" r="2.832" fill="#FAF9FC"/>
<circle cx="444.624" cy="338.992" r="2.832" fill="#FAF9FC"/>
<circle cx="444.624" cy="363.536" r="2.832" fill="#FAF9FC"/>
<circle cx="444.624" cy="388.08" r="2.832" fill="#FAF9FC"/>
<circle cx="469.168" cy="19.9199" r="2.832" fill="#FAF9FC"/>
<circle cx="469.168" cy="44.4638" r="2.832" fill="#FAF9FC"/>
<circle cx="469.168" cy="69.0078" r="2.832" fill="#FAF9FC"/>
<circle cx="469.168" cy="93.5517" r="2.832" fill="#FAF9FC"/>
<circle cx="469.168" cy="118.096" r="2.832" fill="#FAF9FC"/>
<circle cx="469.168" cy="142.64" r="2.832" fill="#FAF9FC"/>
<circle cx="469.168" cy="167.184" r="2.832" fill="#FAF9FC"/>
<circle cx="469.168" cy="191.728" r="2.832" fill="#FAF9FC"/>
<circle cx="469.168" cy="216.272" r="2.832" fill="#FAF9FC"/>
<circle cx="469.168" cy="240.816" r="2.832" fill="#FAF9FC"/>
<circle cx="469.168" cy="265.36" r="2.832" fill="#FAF9FC"/>
<circle cx="469.168" cy="289.904" r="2.832" fill="#FAF9FC"/>
<circle cx="469.168" cy="314.448" r="2.832" fill="#FAF9FC"/>
<circle cx="469.168" cy="338.992" r="2.832" fill="#FAF9FC"/>
<circle cx="469.168" cy="363.536" r="2.832" fill="#FAF9FC"/>
<circle cx="469.168" cy="388.08" r="2.832" fill="#FAF9FC"/>
</svg>
