<svg width="39" height="38" viewBox="0 0 39 38" fill="none" xmlns="http://www.w3.org/2000/svg">
<rect width="38" height="38" transform="translate(0.766113)" fill="#24292F"/>
<g clip-path="url(#clip0_1951_49405)">
<path fill-rule="evenodd" clip-rule="evenodd" d="M19.7304 7C13.1144 7 7.76611 12.5 7.76611 19.3042C7.76611 24.7432 11.193 29.3472 15.9469 30.9767C16.5413 31.0992 16.759 30.712 16.759 30.3862C16.759 30.101 16.7394 29.1232 16.7394 28.1045C13.4113 28.838 12.7182 26.6377 12.7182 26.6377C12.1833 25.2118 11.3908 24.8452 11.3908 24.8452C10.3015 24.0915 11.4702 24.0915 11.4702 24.0915C12.6785 24.173 13.3126 25.3545 13.3126 25.3545C14.382 27.2285 16.1054 26.699 16.7987 26.373C16.8976 25.5785 17.2148 25.0285 17.5515 24.723C14.8971 24.4377 12.1042 23.3785 12.1042 18.6522C12.1042 17.3077 12.5793 16.2077 13.3322 15.3522C13.2134 15.0468 12.7973 13.7835 13.4512 12.0927C13.4512 12.0927 14.4614 11.7667 16.7392 13.3557C17.7144 13.0864 18.7201 12.9494 19.7304 12.9482C20.7406 12.9482 21.7704 13.091 22.7213 13.3557C24.9993 11.7667 26.0095 12.0927 26.0095 12.0927C26.6634 13.7835 26.2471 15.0468 26.1283 15.3522C26.901 16.2077 27.3565 17.3077 27.3565 18.6522C27.3565 23.3785 24.5637 24.4172 21.8894 24.723C22.3253 25.11 22.7015 25.8432 22.7015 27.0045C22.7015 28.6545 22.6819 29.9787 22.6819 30.386C22.6819 30.712 22.8998 31.0992 23.494 30.977C28.2479 29.347 31.6748 24.7432 31.6748 19.3042C31.6944 12.5 26.3264 7 19.7304 7Z" fill="white"/>
</g>
<defs>
<clipPath id="clip0_1951_49405">
<rect width="24" height="24" fill="white" transform="translate(7.76611 7)"/>
</clipPath>
</defs>
</svg>
