<svg width="38" height="38" viewBox="0 0 38 38" fill="none" xmlns="http://www.w3.org/2000/svg">
<rect width="38" height="38" fill="#5865F2"/>
<path d="M27.3303 11.4286C25.7535 10.7067 24.0888 10.1946 22.3789 9.90527C22.1449 10.3236 21.9332 10.7539 21.7446 11.1946C19.9232 10.9201 18.071 10.9201 16.2496 11.1946C16.061 10.754 15.8492 10.3236 15.6153 9.90527C13.9043 10.197 12.2386 10.7104 10.6602 11.4324C7.52664 16.0685 6.67719 20.5895 7.10192 25.0463C8.937 26.4022 10.991 27.4333 13.1746 28.0949C13.6663 27.4337 14.1013 26.7321 14.4752 25.9977C13.7651 25.7325 13.0798 25.4053 12.4271 25.0199C12.5988 24.8953 12.7668 24.767 12.9292 24.6424C14.8284 25.5355 16.9012 25.9986 19 25.9986C21.0987 25.9986 23.1715 25.5355 25.0707 24.6424C25.235 24.7764 25.403 24.9048 25.5729 25.0199C24.9189 25.406 24.2323 25.7338 23.5209 25.9996C23.8943 26.7337 24.3294 27.4346 24.8216 28.0949C27.007 27.436 29.0626 26.4053 30.898 25.0482C31.3963 19.8798 30.0467 15.4003 27.3303 11.4286ZM15.0132 22.3054C13.8296 22.3054 12.8518 21.2313 12.8518 19.91C12.8518 18.5886 13.7956 17.5051 15.0094 17.5051C16.2232 17.5051 17.1934 18.5886 17.1727 19.91C17.1519 21.2313 16.2194 22.3054 15.0132 22.3054ZM22.9867 22.3054C21.8013 22.3054 20.8272 21.2313 20.8272 19.91C20.8272 18.5886 21.7711 17.5051 22.9867 17.5051C24.2024 17.5051 25.1651 18.5886 25.1444 19.91C25.1236 21.2313 24.193 22.3054 22.9867 22.3054Z" fill="#F4F4F4"/>
</svg>
