<svg width="38" height="38" viewBox="0 0 38 38" fill="none" xmlns="http://www.w3.org/2000/svg">
<rect width="38" height="38" fill="#FAFAFA"/>
<path d="M3 19C3 10.1634 10.1634 3 19 3C27.8366 3 35 10.1634 35 19C35 27.8366 27.8366 35 19 35C10.1634 35 3 27.8366 3 19Z" fill="#29A9EA"/>
<path d="M10.1062 19.0863C9.03011 18.7753 9.25281 18.0845 10.3123 17.6881L27.0296 11.2383C28.2575 10.6603 28.8119 11.4193 28.527 12.4926L25.7105 25.9275C25.5169 27.2721 24.6442 27.4175 23.7398 26.6662L16.8999 21.6472L24.9014 14.4631C25.5737 13.9963 25.1305 13.7077 24.4522 14.1459L14.4538 20.4477L10.1062 19.0863Z" fill="white"/>
</svg>
